<svg xmlns="http://www.w3.org/2000/svg" xmlns:xlink="http://www.w3.org/1999/xlink" viewBox="0,0,256,256" width="30px" height="30px"><g fill="none" fill-rule="nonzero" stroke="none" stroke-width="1" stroke-linecap="butt" stroke-linejoin="miter" stroke-miterlimit="10" stroke-dasharray="" stroke-dashoffset="0" font-family="none" font-weight="none" font-size="none" text-anchor="none" style="mix-blend-mode: normal"><g transform="scale(3.2,3.2)"><path d="M7.207,71.5l5.659,-5.659l-0.328,-0.354c-6.474,-6.953 -10.038,-16.005 -10.038,-25.487c0,-20.678 16.822,-37.5 37.5,-37.5c1.696,0 3.499,0.146 5.5,0.448v9.098c-1.841,-0.362 -3.688,-0.546 -5.5,-0.546c-15.715,0 -28.5,12.785 -28.5,28.5c0,7.031 2.628,13.803 7.399,19.066l0.353,0.389l6.248,-6.249v18.294z" fill="#ffffff"></path><path d="M40,3c1.55,0 3.193,0.125 5,0.38v8.064c-1.675,-0.295 -3.351,-0.444 -5,-0.444c-15.991,0 -29,13.009 -29,29c0,7.156 2.674,14.047 7.529,19.402l0.705,0.778l0.743,-0.743l5.023,-5.023v16.586h-16.586l4.464,-4.464l0.682,-0.682l-0.657,-0.706c-6.386,-6.863 -9.903,-15.793 -9.903,-25.148c0,-20.402 16.598,-37 37,-37M40,2c-20.987,0 -38,17.013 -38,38c0,9.987 3.867,19.055 10.172,25.828l-6.172,6.172h20v-20l-6.73,6.73c-4.497,-4.959 -7.27,-11.506 -7.27,-18.73c0,-15.464 12.536,-28 28,-28c2.062,0 4.065,0.238 6,0.661v-10.142c-1.959,-0.312 -3.953,-0.519 -6,-0.519z" fill="#4e7ab5"></path><g><path d="M40,77.5c-1.696,0 -3.499,-0.146 -5.5,-0.448v-9.098c1.841,0.362 3.687,0.546 5.5,0.546c15.715,0 28.5,-12.785 28.5,-28.5c0,-7.043 -2.625,-13.817 -7.391,-19.075l-0.353,-0.389l-6.256,6.257v-18.293h18.293l-5.676,5.675l0.328,0.354c6.485,6.966 10.055,16.012 10.055,25.471c0,20.678 -16.822,37.5 -37.5,37.5z" fill="#ffffff"></path><path d="M71.586,9l-4.481,4.481l-0.682,0.682l0.657,0.706c6.397,6.874 9.92,15.799 9.92,25.131c0,20.402 -16.598,37 -37,37c-1.55,0 -3.193,-0.125 -5,-0.38v-8.064c1.675,0.295 3.351,0.444 5,0.444c15.991,0 29,-13.009 29,-29c0,-7.168 -2.671,-14.061 -7.52,-19.411l-0.705,-0.778l-0.743,0.743l-5.032,5.032v-16.586h16.586M74,8h-20v20l6.739,-6.739c4.496,4.96 7.261,11.515 7.261,18.739c0,15.464 -12.536,28 -28,28c-2.062,0 -4.065,-0.238 -6,-0.661v10.142c1.959,0.312 3.953,0.519 6,0.519c20.987,0 38,-17.013 38,-38c0,-9.987 -3.884,-19.038 -10.188,-25.812l6.188,-6.188z" fill="#4e7ab5"></path></g></g></g></svg>